<?xml version="1.0" standalone="no"?>
<!DOCTYPE svg PUBLIC "-//W3C//DTD SVG 20010904//EN"
 "http://www.w3.org/TR/2001/REC-SVG-20010904/DTD/svg10.dtd">
<svg version="1.0" xmlns="http://www.w3.org/2000/svg"
 width="1200.000000pt" height="1200.000000pt" viewBox="0 0 1200.000000 1200.000000"
 preserveAspectRatio="xMidYMid meet">

<g transform="translate(0.000000,1200.000000) scale(0.100000,-0.100000)"
fill="#b45f2a" stroke="none">
<path d="M5707 9900 c-37 -11 -55 -27 -74 -63 -23 -46 -9 -87 57 -167 89 -106
114 -160 114 -245 0 -91 -22 -140 -107 -234 -119 -132 -163 -255 -138 -387 14
-78 57 -169 101 -213 25 -24 40 -31 71 -31 52 0 95 23 119 63 26 42 25 66 -5
137 -28 67 -32 128 -11 168 8 16 46 66 86 112 39 46 82 107 95 135 30 60 55
170 55 240 0 186 -122 416 -252 475 -46 21 -67 23 -111 10z"/>
<path d="M4794 9801 c-41 -25 -64 -59 -64 -94 0 -39 14 -62 86 -140 142 -154
137 -282 -18 -472 -81 -99 -115 -164 -130 -254 -9 -53 -9 -84 0 -133 15 -84
68 -186 111 -215 65 -44 155 -23 186 43 21 44 19 65 -10 134 -29 68 -32 128
-9 172 9 17 47 67 84 111 147 172 189 330 140 521 -26 103 -63 169 -135 241
-98 97 -176 125 -241 86z"/>
<path d="M6552 9803 c-43 -21 -66 -65 -59 -114 4 -27 22 -58 66 -110 88 -105
106 -146 106 -244 0 -98 -16 -133 -111 -242 -36 -41 -80 -105 -98 -142 -29
-61 -31 -74 -31 -171 0 -97 2 -110 31 -170 17 -36 47 -82 66 -102 29 -32 42
-38 75 -38 51 0 102 33 126 82 16 34 17 39 1 79 -44 121 -48 145 -30 192 9 24
44 75 77 113 117 134 159 236 159 388 0 161 -48 289 -150 400 -83 89 -156 115
-228 79z"/>
<path d="M5425 8276 c-84 -16 -170 -53 -234 -100 -68 -50 -2544 -2547 -2668
-2691 -129 -149 -161 -210 -173 -331 -14 -126 -13 -2041 1 -2124 21 -129 113
-246 229 -292 106 -42 176 -35 1085 105 451 69 1033 160 1292 202 260 41 769
120 1130 175 362 55 827 127 1033 160 206 32 681 107 1056 164 374 58 710 115
746 126 125 38 246 141 324 273 46 78 67 132 89 227 16 69 17 149 16 942 -2
602 1 878 9 907 9 36 19 45 79 80 80 47 124 94 160 171 36 77 37 229 3 340
-73 235 -251 399 -517 476 -83 24 -98 36 -139 113 -64 123 -154 200 -315 273
-154 69 -333 93 -486 65 -44 -8 -89 -11 -100 -7 -11 4 -39 31 -63 59 -146 173
-421 270 -682 241 -52 -6 -121 -14 -153 -17 l-57 -6 -78 80 c-60 62 -95 88
-152 116 -121 58 -238 88 -370 94 -113 5 -151 1 -326 -39 l-52 -12 -63 57
c-35 31 -94 73 -132 93 -135 71 -354 106 -492 80z m217 -287 c104 -22 156 -55
263 -165 55 -56 112 -105 126 -109 18 -4 54 4 115 28 345 132 563 84 745 -166
62 -85 86 -106 118 -107 13 0 74 16 135 36 139 46 294 58 391 29 129 -37 225
-109 313 -235 90 -128 91 -128 236 -79 106 37 236 49 328 30 140 -29 253 -120
314 -250 20 -42 40 -86 46 -98 18 -36 49 -51 155 -72 121 -25 222 -74 299
-144 76 -69 104 -129 104 -222 0 -76 -4 -86 -37 -104 -28 -14 -417 -77 -1133
-181 -311 -45 -582 -87 -603 -92 -21 -5 -52 -22 -69 -37 -27 -24 -32 -36 -36
-88 -5 -73 13 -114 62 -137 44 -21 111 -20 266 4 69 11 378 56 687 101 457 66
566 79 578 69 13 -11 15 -121 15 -890 0 -826 -1 -882 -18 -938 -38 -120 -129
-207 -247 -236 -55 -14 -563 -93 -2660 -416 -1781 -274 -3123 -481 -3175 -490
-30 -5 -94 -14 -142 -19 -104 -12 -150 -2 -166 35 -9 18 -12 282 -12 999 0
814 2 976 14 987 16 16 296 60 911 143 575 78 717 100 754 120 22 11 40 32 53
62 28 63 18 125 -27 170 -28 28 -40 33 -82 33 -26 0 -361 -45 -743 -99 -382
-55 -696 -98 -698 -97 -9 10 121 149 465 498 1003 1017 2042 2057 2078 2081
75 49 178 67 277 46z"/>
<path d="M5873 6999 c-357 -27 -574 -127 -823 -379 -163 -165 -251 -314 -314
-532 -73 -252 -86 -695 -30 -1020 71 -416 290 -715 652 -889 186 -90 368 -130
589 -130 444 0 774 147 996 446 106 143 181 324 194 469 8 106 21 102 -281 98
-316 -4 -308 -2 -351 -122 -63 -177 -178 -285 -358 -337 -95 -27 -228 -31
-325 -8 -144 34 -289 133 -366 250 -50 75 -80 158 -107 305 -22 113 -24 152
-24 410 0 262 2 292 23 374 33 133 81 215 187 322 73 74 106 99 175 133 323
159 691 22 800 -299 39 -114 37 -113 122 -121 40 -4 159 -8 263 -8 223 -1 238
3 243 65 4 56 -33 232 -68 323 -115 298 -390 531 -728 617 -84 21 -287 46
-347 42 -11 0 -66 -4 -122 -9z"/>
</g>
</svg>
